PathFileType	4	(X/Y/Z)	TVC_32_BWA_07_walk_RCNL2025.trc
DataRate	CameraRate	NumFrames	NumMarkers	Units	OrigDataRate	OrigDataStartFrame	OrigNumFrames
100	100	6	27	mm	100	171	272
Frame#	Time	R_Shoulder			L_Shoulder			C7			J_Notch			R_Elbow			L_Elbow			R_Wrist			L_Wrist			R_Asis			L_Asis			R_Psis			L_Psis			Sacral			Thoracic			Sternum			R_Thigh_Lateral			R_Knee_Lateral			R_Shank_Lateral			R_Ankle_Lateral			R_Heel			R_Toe			L_Thigh_Lateral			L_Knee_Lateral			L_Shank_Lateral			L_Ankle_Lateral			L_Heel			L_Toe		
		X1	Y1	Z1	X2	Y2	Z2	X3	Y3	Z3	X4	Y4	Z4	X5	Y5	Z5	X6	Y6	Z6	X7	Y7	Z7	X8	Y8	Z8	X9	Y9	Z9	X10	Y10	Z10	X11	Y11	Z11	X12	Y12	Z12	X13	Y13	Z13	X14	Y14	Z14	X15	Y15	Z15	X16	Y16	Z16	X17	Y17	Z17	X18	Y18	Z18	X19	Y19	Z19	X20	Y20	Z20	X21	Y21	Z21	X22	Y22	Z22	X23	Y23	Z23	X24	Y24	Z24	X25	Y25	Z25	X26	Y26	Z26	X27	Y27	Z27
171	1.70000000	469.534882	1463.228638	-308.272614	469.273956	1430.077148	-681.699097	427.655365	1497.455078	-498.358551	583.641541	1395.375977	-484.375000	324.594299	1149.352295	-185.544754	567.406250	1132.214111	-819.259766	322.219330	875.551147	-235.553368	804.464478	999.233917	-807.863190	515.490295	979.306091	-343.044556	485.227905	1001.736511	-623.464478	320.601654	1008.684326	-406.597992	310.271393	1013.891602	-508.400024	315.436523	1011.287964	-457.499008	345.349121	1238.469482	-469.038727	605.333252	1249.469360	-488.453033	501.416687	597.069214	-292.708527	606.527832	496.409454	-344.767059	637.070618	292.494812	-284.094177	732.268250	88.779724	-351.628448	689.547607	43.236721	-415.586914	881.867981	103.453552	-365.513611	364.833069	661.932068	-675.021545	336.949158	498.089905	-605.788757	281.254272	346.874054	-666.614685	253.671417	72.371536	-592.706177	183.130981	63.282532	-545.202820	391.345886	37.689823	-566.561707
172	1.71000000	479.099152	1461.988892	-306.377747	478.503815	1429.487793	-679.803101	437.165863	1496.558716	-496.259064	593.274841	1394.574707	-482.660339	331.238525	1149.211060	-184.712006	577.072632	1131.642822	-817.140869	326.437836	875.463379	-234.895073	815.329224	1000.923492	-805.407959	524.726379	977.154724	-343.459320	494.283905	1000.578064	-623.021912	330.109314	1007.822021	-405.670807	319.626953	1012.828857	-507.568207	324.868134	1010.325439	-456.619507	354.933258	1237.509399	-467.574432	615.043030	1248.673218	-487.263123	515.255188	597.855408	-290.735931	616.130737	495.577179	-343.813416	643.129578	290.347260	-284.827576	736.814514	86.788338	-351.893768	693.838806	43.212963	-416.486389	886.605591	96.860832	-364.697479	372.435181	661.021301	-674.911621	342.742401	497.497284	-605.537720	285.384918	346.851898	-666.622437	254.158585	72.838699	-592.749023	183.485321	64.247887	-545.321106	391.381104	37.649044	-566.546875
173	1.72000000	488.819122	1460.806763	-304.412811	487.819031	1429.088501	-677.888977	446.750366	1495.858154	-494.100159	602.955994	1393.912720	-480.936310	338.470093	1148.931641	-183.838730	586.472595	1131.051514	-814.853882	331.249176	875.262695	-234.065468	825.661804	1002.111969	-802.748596	533.763672	975.320496	-343.696808	503.390045	999.489990	-622.482788	339.494965	1007.188965	-404.787537	328.942993	1011.951477	-506.791351	334.218979	1009.570221	-455.789444	364.500610	1236.766968	-466.160828	624.748108	1248.017822	-486.064331	530.232178	599.689270	-287.917603	626.188232	495.151154	-342.482086	649.122681	288.619049	-285.143555	740.210510	84.763573	-352.003998	696.582947	43.540840	-417.113403	890.245911	89.276527	-364.071106	380.265686	660.176025	-674.693237	348.728271	497.017883	-605.192993	289.710724	346.949554	-666.563843	254.722534	73.503677	-592.792969	183.924591	65.499611	-545.472229	391.436432	37.616844	-566.522278
174	1.73000000	498.683289	1459.718628	-302.392731	497.230133	1428.904907	-675.968872	456.407410	1495.378540	-491.900208	612.679321	1393.411621	-479.210693	346.290009	1148.535889	-182.932175	595.603455	1130.468140	-812.414551	336.670975	874.966461	-233.071266	835.448181	1002.791656	-799.888977	542.622681	973.876770	-343.708679	512.536255	998.518005	-621.836365	348.760620	1006.812195	-403.938873	338.211975	1011.302551	-506.055634	343.486298	1009.057373	-454.997253	374.047028	1236.271484	-464.800262	634.440552	1247.523926	-484.859711	544.990051	602.154785	-284.845032	636.550720	495.117462	-340.867584	655.428162	287.487579	-284.889587	742.937317	82.883446	-351.912201	698.341492	44.197159	-417.391632	893.229187	81.359779	-363.610596	388.291473	659.467957	-674.333923	354.907745	496.696747	-604.745667	294.204071	347.226562	-666.410400	255.372406	74.408005	-592.819031	184.461838	67.085144	-545.623047	391.522827	37.598072	-566.486877
175	1.74000000	508.677704	1458.760864	-300.332916	506.742371	1428.957642	-674.052734	466.133087	1495.139893	-489.676849	622.437927	1393.090576	-477.490753	354.690216	1148.051270	-181.999481	604.465576	1129.922241	-809.840820	342.719406	874.595245	-231.920288	844.674042	1002.959320	-796.833649	551.331543	972.879211	-343.460297	521.709473	997.712708	-621.075073	357.915466	1006.712524	-403.109344	347.428436	1010.920959	-505.340088	352.671951	1008.816742	-454.224716	383.569061	1236.046387	-463.488251	644.113281	1247.210327	-483.651672	558.502380	604.839355	-282.034027	647.066589	495.443298	-339.073944	662.335938	287.019226	-283.992798	745.312927	81.261452	-351.621948	699.538330	45.105045	-417.313019	895.807800	73.680428	-363.323120	396.466187	658.973633	-673.811584	361.283386	496.575256	-604.196777	298.829376	347.742188	-666.142151	256.116669	75.586250	-592.809448	185.112625	69.043312	-545.741699	391.652069	37.597237	-566.441467
176	1.75000000	518.786621	1457.968872	-298.248291	516.354797	1429.260742	-672.148376	475.920837	1495.157104	-487.446503	632.223572	1392.965576	-475.783234	363.653503	1147.508545	-181.047089	613.062195	1129.442871	-807.152588	349.409409	874.171936	-230.621140	853.325867	1002.616638	-793.588898	559.924255	972.361084	-342.933655	530.894348	997.126831	-620.194580	366.974518	1006.903503	-402.278168	356.588715	1010.839233	-504.617859	361.781616	1008.871368	-453.448013	393.063782	1236.108398	-462.213684	653.759338	1247.092285	-482.441681	570.328735	607.421631	-279.768738	657.585449	496.075531	-337.208466	669.956970	287.167297	-282.501007	747.503906	79.951843	-351.181793	700.455261	46.156597	-416.928589	898.088562	66.675690	-363.236237	404.734894	658.765808	-673.118286	367.860687	496.686707	-603.559021	303.547943	348.549103	-665.750854	256.963013	77.062035	-592.751953	185.894363	71.401001	-545.802490	391.836121	37.617393	-566.390320
